<mxfile host="Electron" agent="Mozilla/5.0 (Windows NT 10.0; Win64; x64) AppleWebKit/537.36 (KHTML, like Gecko) draw.io/24.7.17 Chrome/128.0.6613.36 Electron/32.0.1 Safari/537.36" version="24.7.17">
  <diagram id="C5RBs43oDa-KdzZeNtuy" name="Page-1">
    <mxGraphModel dx="3187" dy="1858" grid="1" gridSize="10" guides="1" tooltips="1" connect="1" arrows="1" fold="1" page="1" pageScale="1" pageWidth="827" pageHeight="1169" math="0" shadow="0">
      <root>
        <mxCell id="WIyWlLk6GJQsqaUBKTNV-0" />
        <mxCell id="WIyWlLk6GJQsqaUBKTNV-1" parent="WIyWlLk6GJQsqaUBKTNV-0" />
        <mxCell id="EJMl3LAZy8YmI0-ctrb4-38" style="edgeStyle=orthogonalEdgeStyle;rounded=0;orthogonalLoop=1;jettySize=auto;html=1;entryX=0.5;entryY=0;entryDx=0;entryDy=0;" edge="1" parent="WIyWlLk6GJQsqaUBKTNV-1" source="WIyWlLk6GJQsqaUBKTNV-3" target="EJMl3LAZy8YmI0-ctrb4-34">
          <mxGeometry relative="1" as="geometry" />
        </mxCell>
        <mxCell id="WIyWlLk6GJQsqaUBKTNV-3" value="Начало" style="rounded=1;whiteSpace=wrap;html=1;fontSize=12;glass=0;strokeWidth=1;shadow=0;" parent="WIyWlLk6GJQsqaUBKTNV-1" vertex="1">
          <mxGeometry x="160" y="10" width="120" height="40" as="geometry" />
        </mxCell>
        <mxCell id="WIyWlLk6GJQsqaUBKTNV-11" value="&quot;Логический конец&quot;" style="rounded=1;whiteSpace=wrap;html=1;fontSize=12;glass=0;strokeWidth=1;shadow=0;" parent="WIyWlLk6GJQsqaUBKTNV-1" vertex="1">
          <mxGeometry x="160" y="1260" width="120" height="40" as="geometry" />
        </mxCell>
        <mxCell id="EJMl3LAZy8YmI0-ctrb4-5" style="edgeStyle=orthogonalEdgeStyle;rounded=0;orthogonalLoop=1;jettySize=auto;html=1;entryX=0.5;entryY=0;entryDx=0;entryDy=0;endArrow=none;endFill=0;" edge="1" parent="WIyWlLk6GJQsqaUBKTNV-1" source="EJMl3LAZy8YmI0-ctrb4-3" target="EJMl3LAZy8YmI0-ctrb4-8">
          <mxGeometry relative="1" as="geometry" />
        </mxCell>
        <mxCell id="EJMl3LAZy8YmI0-ctrb4-3" value="Переход в начальное состояние S1" style="rounded=0;whiteSpace=wrap;html=1;" vertex="1" parent="WIyWlLk6GJQsqaUBKTNV-1">
          <mxGeometry x="160" y="220" width="120" height="60" as="geometry" />
        </mxCell>
        <mxCell id="EJMl3LAZy8YmI0-ctrb4-7" style="edgeStyle=orthogonalEdgeStyle;rounded=0;orthogonalLoop=1;jettySize=auto;html=1;entryX=0;entryY=0.5;entryDx=0;entryDy=0;endArrow=none;endFill=0;" edge="1" parent="WIyWlLk6GJQsqaUBKTNV-1" source="EJMl3LAZy8YmI0-ctrb4-4" target="EJMl3LAZy8YmI0-ctrb4-6">
          <mxGeometry relative="1" as="geometry" />
        </mxCell>
        <mxCell id="EJMl3LAZy8YmI0-ctrb4-39" value="Да&lt;div&gt;&lt;br&gt;&lt;/div&gt;" style="edgeLabel;html=1;align=center;verticalAlign=middle;resizable=0;points=[];" vertex="1" connectable="0" parent="EJMl3LAZy8YmI0-ctrb4-7">
          <mxGeometry x="-0.1571" y="3" relative="1" as="geometry">
            <mxPoint x="-1" y="1" as="offset" />
          </mxGeometry>
        </mxCell>
        <mxCell id="EJMl3LAZy8YmI0-ctrb4-24" style="edgeStyle=orthogonalEdgeStyle;rounded=0;orthogonalLoop=1;jettySize=auto;html=1;entryX=0.5;entryY=0;entryDx=0;entryDy=0;" edge="1" parent="WIyWlLk6GJQsqaUBKTNV-1" source="EJMl3LAZy8YmI0-ctrb4-4" target="EJMl3LAZy8YmI0-ctrb4-23">
          <mxGeometry relative="1" as="geometry" />
        </mxCell>
        <mxCell id="EJMl3LAZy8YmI0-ctrb4-40" value="Нет" style="edgeLabel;html=1;align=center;verticalAlign=middle;resizable=0;points=[];" vertex="1" connectable="0" parent="EJMl3LAZy8YmI0-ctrb4-24">
          <mxGeometry x="-0.0357" y="-2" relative="1" as="geometry">
            <mxPoint as="offset" />
          </mxGeometry>
        </mxCell>
        <mxCell id="EJMl3LAZy8YmI0-ctrb4-4" value="Переход с интенсивностью&amp;nbsp;&lt;div&gt;&lt;span style=&quot;color: rgb(0, 0, 0); font-family: &amp;quot;Courier New&amp;quot;; font-size: 10pt; white-space: pre; background-color: rgb(255, 255, 255);&quot;&gt;1/taug&lt;/span&gt;&lt;/div&gt;" style="rhombus;whiteSpace=wrap;html=1;" vertex="1" parent="WIyWlLk6GJQsqaUBKTNV-1">
          <mxGeometry x="150" y="430" width="140" height="80" as="geometry" />
        </mxCell>
        <mxCell id="EJMl3LAZy8YmI0-ctrb4-11" style="edgeStyle=orthogonalEdgeStyle;rounded=0;orthogonalLoop=1;jettySize=auto;html=1;entryX=0.5;entryY=0;entryDx=0;entryDy=0;endArrow=none;endFill=0;" edge="1" parent="WIyWlLk6GJQsqaUBKTNV-1" source="EJMl3LAZy8YmI0-ctrb4-6" target="EJMl3LAZy8YmI0-ctrb4-10">
          <mxGeometry relative="1" as="geometry" />
        </mxCell>
        <mxCell id="EJMl3LAZy8YmI0-ctrb4-6" value="Переход в состояние S4" style="rounded=0;whiteSpace=wrap;html=1;" vertex="1" parent="WIyWlLk6GJQsqaUBKTNV-1">
          <mxGeometry x="360" y="440" width="120" height="60" as="geometry" />
        </mxCell>
        <mxCell id="EJMl3LAZy8YmI0-ctrb4-9" style="edgeStyle=orthogonalEdgeStyle;rounded=0;orthogonalLoop=1;jettySize=auto;html=1;entryX=0.5;entryY=0;entryDx=0;entryDy=0;endArrow=none;endFill=0;" edge="1" parent="WIyWlLk6GJQsqaUBKTNV-1" source="EJMl3LAZy8YmI0-ctrb4-8" target="EJMl3LAZy8YmI0-ctrb4-4">
          <mxGeometry relative="1" as="geometry" />
        </mxCell>
        <mxCell id="EJMl3LAZy8YmI0-ctrb4-8" value="Подсчёт времени нахождения в состоянии S1" style="rounded=0;whiteSpace=wrap;html=1;" vertex="1" parent="WIyWlLk6GJQsqaUBKTNV-1">
          <mxGeometry x="160" y="330" width="120" height="60" as="geometry" />
        </mxCell>
        <mxCell id="EJMl3LAZy8YmI0-ctrb4-13" style="edgeStyle=orthogonalEdgeStyle;rounded=0;orthogonalLoop=1;jettySize=auto;html=1;entryX=0.5;entryY=0;entryDx=0;entryDy=0;" edge="1" parent="WIyWlLk6GJQsqaUBKTNV-1" source="EJMl3LAZy8YmI0-ctrb4-10" target="EJMl3LAZy8YmI0-ctrb4-12">
          <mxGeometry relative="1" as="geometry" />
        </mxCell>
        <mxCell id="EJMl3LAZy8YmI0-ctrb4-10" value="Подсчёт времени нахождения в состоянии S4" style="rounded=0;whiteSpace=wrap;html=1;" vertex="1" parent="WIyWlLk6GJQsqaUBKTNV-1">
          <mxGeometry x="360" y="550" width="120" height="60" as="geometry" />
        </mxCell>
        <mxCell id="EJMl3LAZy8YmI0-ctrb4-14" style="edgeStyle=orthogonalEdgeStyle;rounded=0;orthogonalLoop=1;jettySize=auto;html=1;entryX=1;entryY=0.5;entryDx=0;entryDy=0;" edge="1" parent="WIyWlLk6GJQsqaUBKTNV-1" source="EJMl3LAZy8YmI0-ctrb4-12" target="EJMl3LAZy8YmI0-ctrb4-3">
          <mxGeometry relative="1" as="geometry">
            <Array as="points">
              <mxPoint x="560" y="690" />
              <mxPoint x="560" y="250" />
            </Array>
          </mxGeometry>
        </mxCell>
        <mxCell id="EJMl3LAZy8YmI0-ctrb4-48" value="Да" style="edgeLabel;html=1;align=center;verticalAlign=middle;resizable=0;points=[];" vertex="1" connectable="0" parent="EJMl3LAZy8YmI0-ctrb4-14">
          <mxGeometry x="-0.9252" y="-1" relative="1" as="geometry">
            <mxPoint as="offset" />
          </mxGeometry>
        </mxCell>
        <mxCell id="EJMl3LAZy8YmI0-ctrb4-17" style="edgeStyle=orthogonalEdgeStyle;rounded=0;orthogonalLoop=1;jettySize=auto;html=1;" edge="1" parent="WIyWlLk6GJQsqaUBKTNV-1" source="EJMl3LAZy8YmI0-ctrb4-12" target="EJMl3LAZy8YmI0-ctrb4-16">
          <mxGeometry relative="1" as="geometry" />
        </mxCell>
        <mxCell id="EJMl3LAZy8YmI0-ctrb4-49" value="Нет" style="edgeLabel;html=1;align=center;verticalAlign=middle;resizable=0;points=[];" vertex="1" connectable="0" parent="EJMl3LAZy8YmI0-ctrb4-17">
          <mxGeometry x="-0.2439" y="-1" relative="1" as="geometry">
            <mxPoint as="offset" />
          </mxGeometry>
        </mxCell>
        <mxCell id="EJMl3LAZy8YmI0-ctrb4-12" value="Переход с интенсивностью&amp;nbsp;&lt;div&gt;&lt;span style=&quot;color: rgb(0, 0, 0); font-family: &amp;quot;Courier New&amp;quot;; font-size: 10pt; white-space: pre; background-color: rgb(255, 255, 255);&quot;&gt;1/Tg&lt;/span&gt;&lt;/div&gt;" style="rhombus;whiteSpace=wrap;html=1;" vertex="1" parent="WIyWlLk6GJQsqaUBKTNV-1">
          <mxGeometry x="350" y="650" width="140" height="80" as="geometry" />
        </mxCell>
        <mxCell id="EJMl3LAZy8YmI0-ctrb4-19" style="edgeStyle=orthogonalEdgeStyle;rounded=0;orthogonalLoop=1;jettySize=auto;html=1;entryX=0;entryY=0.5;entryDx=0;entryDy=0;" edge="1" parent="WIyWlLk6GJQsqaUBKTNV-1" source="EJMl3LAZy8YmI0-ctrb4-16" target="EJMl3LAZy8YmI0-ctrb4-18">
          <mxGeometry relative="1" as="geometry" />
        </mxCell>
        <mxCell id="EJMl3LAZy8YmI0-ctrb4-47" value="Да" style="edgeLabel;html=1;align=center;verticalAlign=middle;resizable=0;points=[];" vertex="1" connectable="0" parent="EJMl3LAZy8YmI0-ctrb4-19">
          <mxGeometry x="-0.2956" y="2" relative="1" as="geometry">
            <mxPoint as="offset" />
          </mxGeometry>
        </mxCell>
        <mxCell id="EJMl3LAZy8YmI0-ctrb4-16" value="Переход с интенсивностью&amp;nbsp;&lt;div&gt;&lt;span style=&quot;color: rgb(0, 0, 0); font-family: &amp;quot;Courier New&amp;quot;; font-size: 10pt; white-space: pre; background-color: rgb(255, 255, 255);&quot;&gt;1.05/Tg&lt;/span&gt;&lt;/div&gt;" style="rhombus;whiteSpace=wrap;html=1;" vertex="1" parent="WIyWlLk6GJQsqaUBKTNV-1">
          <mxGeometry x="350" y="770" width="140" height="80" as="geometry" />
        </mxCell>
        <mxCell id="EJMl3LAZy8YmI0-ctrb4-21" style="edgeStyle=orthogonalEdgeStyle;rounded=0;orthogonalLoop=1;jettySize=auto;html=1;exitX=0.5;exitY=1;exitDx=0;exitDy=0;entryX=0.5;entryY=0;entryDx=0;entryDy=0;" edge="1" parent="WIyWlLk6GJQsqaUBKTNV-1" source="EJMl3LAZy8YmI0-ctrb4-18" target="EJMl3LAZy8YmI0-ctrb4-20">
          <mxGeometry relative="1" as="geometry">
            <mxPoint x="897" y="880" as="targetPoint" />
          </mxGeometry>
        </mxCell>
        <mxCell id="EJMl3LAZy8YmI0-ctrb4-18" value="Переход в состояние S5" style="rounded=0;whiteSpace=wrap;html=1;" vertex="1" parent="WIyWlLk6GJQsqaUBKTNV-1">
          <mxGeometry x="837" y="780" width="120" height="60" as="geometry" />
        </mxCell>
        <mxCell id="EJMl3LAZy8YmI0-ctrb4-22" style="edgeStyle=orthogonalEdgeStyle;rounded=0;orthogonalLoop=1;jettySize=auto;html=1;entryX=1;entryY=0.5;entryDx=0;entryDy=0;exitX=1;exitY=0.5;exitDx=0;exitDy=0;" edge="1" parent="WIyWlLk6GJQsqaUBKTNV-1" source="EJMl3LAZy8YmI0-ctrb4-20" target="EJMl3LAZy8YmI0-ctrb4-3">
          <mxGeometry relative="1" as="geometry">
            <Array as="points">
              <mxPoint x="1010" y="930" />
              <mxPoint x="1010" y="250" />
            </Array>
          </mxGeometry>
        </mxCell>
        <mxCell id="EJMl3LAZy8YmI0-ctrb4-46" value="Да" style="edgeLabel;html=1;align=center;verticalAlign=middle;resizable=0;points=[];" vertex="1" connectable="0" parent="EJMl3LAZy8YmI0-ctrb4-22">
          <mxGeometry x="-0.9355" y="1" relative="1" as="geometry">
            <mxPoint as="offset" />
          </mxGeometry>
        </mxCell>
        <mxCell id="EJMl3LAZy8YmI0-ctrb4-20" value="Переход с интенсивностью&amp;nbsp;&lt;div&gt;&lt;span style=&quot;color: rgb(0, 0, 0); font-family: &amp;quot;Courier New&amp;quot;; font-size: 10pt; white-space: pre; background-color: rgb(255, 255, 255);&quot;&gt;1/tv&lt;/span&gt;&lt;/div&gt;" style="rhombus;whiteSpace=wrap;html=1;" vertex="1" parent="WIyWlLk6GJQsqaUBKTNV-1">
          <mxGeometry x="827" y="890" width="140" height="80" as="geometry" />
        </mxCell>
        <mxCell id="EJMl3LAZy8YmI0-ctrb4-26" style="edgeStyle=orthogonalEdgeStyle;rounded=0;orthogonalLoop=1;jettySize=auto;html=1;entryX=0;entryY=0.5;entryDx=0;entryDy=0;" edge="1" parent="WIyWlLk6GJQsqaUBKTNV-1" source="EJMl3LAZy8YmI0-ctrb4-23" target="EJMl3LAZy8YmI0-ctrb4-25">
          <mxGeometry relative="1" as="geometry" />
        </mxCell>
        <mxCell id="EJMl3LAZy8YmI0-ctrb4-41" value="Да" style="edgeLabel;html=1;align=center;verticalAlign=middle;resizable=0;points=[];" vertex="1" connectable="0" parent="EJMl3LAZy8YmI0-ctrb4-26">
          <mxGeometry x="-0.1214" y="1" relative="1" as="geometry">
            <mxPoint x="-1" as="offset" />
          </mxGeometry>
        </mxCell>
        <mxCell id="EJMl3LAZy8YmI0-ctrb4-23" value="Переход с интенсивностью&amp;nbsp;&lt;div&gt;&lt;span style=&quot;color: rgb(0, 0, 0); font-family: &amp;quot;Courier New&amp;quot;; font-size: 10pt; white-space: pre; background-color: rgb(255, 255, 255);&quot;&gt;1/t0g&lt;/span&gt;&lt;/div&gt;" style="rhombus;whiteSpace=wrap;html=1;" vertex="1" parent="WIyWlLk6GJQsqaUBKTNV-1">
          <mxGeometry x="150" y="1000" width="140" height="80" as="geometry" />
        </mxCell>
        <mxCell id="EJMl3LAZy8YmI0-ctrb4-28" style="edgeStyle=orthogonalEdgeStyle;rounded=0;orthogonalLoop=1;jettySize=auto;html=1;exitX=0.5;exitY=1;exitDx=0;exitDy=0;entryX=0.5;entryY=0;entryDx=0;entryDy=0;" edge="1" parent="WIyWlLk6GJQsqaUBKTNV-1" source="EJMl3LAZy8YmI0-ctrb4-25" target="EJMl3LAZy8YmI0-ctrb4-27">
          <mxGeometry relative="1" as="geometry" />
        </mxCell>
        <mxCell id="EJMl3LAZy8YmI0-ctrb4-25" value="Переход в состояние S2" style="rounded=0;whiteSpace=wrap;html=1;" vertex="1" parent="WIyWlLk6GJQsqaUBKTNV-1">
          <mxGeometry x="360" y="1010" width="120" height="60" as="geometry" />
        </mxCell>
        <mxCell id="EJMl3LAZy8YmI0-ctrb4-30" style="edgeStyle=orthogonalEdgeStyle;rounded=0;orthogonalLoop=1;jettySize=auto;html=1;entryX=0;entryY=0.5;entryDx=0;entryDy=0;" edge="1" parent="WIyWlLk6GJQsqaUBKTNV-1" source="EJMl3LAZy8YmI0-ctrb4-27" target="EJMl3LAZy8YmI0-ctrb4-29">
          <mxGeometry relative="1" as="geometry" />
        </mxCell>
        <mxCell id="EJMl3LAZy8YmI0-ctrb4-43" value="Да" style="edgeLabel;html=1;align=center;verticalAlign=middle;resizable=0;points=[];" vertex="1" connectable="0" parent="EJMl3LAZy8YmI0-ctrb4-30">
          <mxGeometry x="-0.0883" relative="1" as="geometry">
            <mxPoint as="offset" />
          </mxGeometry>
        </mxCell>
        <mxCell id="EJMl3LAZy8YmI0-ctrb4-27" value="Переход с exp интенсивностью&amp;nbsp;" style="rhombus;whiteSpace=wrap;html=1;" vertex="1" parent="WIyWlLk6GJQsqaUBKTNV-1">
          <mxGeometry x="350" y="1100" width="140" height="80" as="geometry" />
        </mxCell>
        <mxCell id="EJMl3LAZy8YmI0-ctrb4-32" style="edgeStyle=orthogonalEdgeStyle;rounded=0;orthogonalLoop=1;jettySize=auto;html=1;entryX=0.5;entryY=0;entryDx=0;entryDy=0;" edge="1" parent="WIyWlLk6GJQsqaUBKTNV-1" source="EJMl3LAZy8YmI0-ctrb4-29" target="EJMl3LAZy8YmI0-ctrb4-31">
          <mxGeometry relative="1" as="geometry" />
        </mxCell>
        <mxCell id="EJMl3LAZy8YmI0-ctrb4-29" value="Переход в состояние S3" style="rounded=0;whiteSpace=wrap;html=1;" vertex="1" parent="WIyWlLk6GJQsqaUBKTNV-1">
          <mxGeometry x="560" y="1110" width="120" height="60" as="geometry" />
        </mxCell>
        <mxCell id="EJMl3LAZy8YmI0-ctrb4-33" style="edgeStyle=orthogonalEdgeStyle;rounded=0;orthogonalLoop=1;jettySize=auto;html=1;entryX=0.5;entryY=0;entryDx=0;entryDy=0;" edge="1" parent="WIyWlLk6GJQsqaUBKTNV-1" source="EJMl3LAZy8YmI0-ctrb4-31" target="EJMl3LAZy8YmI0-ctrb4-18">
          <mxGeometry relative="1" as="geometry">
            <Array as="points">
              <mxPoint x="760" y="1250" />
              <mxPoint x="760" y="720" />
              <mxPoint x="897" y="720" />
            </Array>
          </mxGeometry>
        </mxCell>
        <mxCell id="EJMl3LAZy8YmI0-ctrb4-44" value="Да" style="edgeLabel;html=1;align=center;verticalAlign=middle;resizable=0;points=[];" vertex="1" connectable="0" parent="EJMl3LAZy8YmI0-ctrb4-33">
          <mxGeometry x="-0.8909" y="-1" relative="1" as="geometry">
            <mxPoint as="offset" />
          </mxGeometry>
        </mxCell>
        <mxCell id="EJMl3LAZy8YmI0-ctrb4-31" value="Переход с интенсивностью&amp;nbsp;&lt;div&gt;&lt;span style=&quot;color: rgb(0, 0, 0); font-family: &amp;quot;Courier New&amp;quot;; font-size: 10pt; white-space: pre; background-color: rgb(255, 255, 255);&quot;&gt;1/Tg&lt;/span&gt;&lt;/div&gt;" style="rhombus;whiteSpace=wrap;html=1;" vertex="1" parent="WIyWlLk6GJQsqaUBKTNV-1">
          <mxGeometry x="550" y="1210" width="140" height="80" as="geometry" />
        </mxCell>
        <mxCell id="EJMl3LAZy8YmI0-ctrb4-35" style="edgeStyle=orthogonalEdgeStyle;rounded=0;orthogonalLoop=1;jettySize=auto;html=1;entryX=0.5;entryY=0;entryDx=0;entryDy=0;" edge="1" parent="WIyWlLk6GJQsqaUBKTNV-1" source="EJMl3LAZy8YmI0-ctrb4-34" target="EJMl3LAZy8YmI0-ctrb4-3">
          <mxGeometry relative="1" as="geometry" />
        </mxCell>
        <mxCell id="EJMl3LAZy8YmI0-ctrb4-36" value="Да" style="edgeLabel;html=1;align=center;verticalAlign=middle;resizable=0;points=[];" vertex="1" connectable="0" parent="EJMl3LAZy8YmI0-ctrb4-35">
          <mxGeometry x="-0.1452" y="1" relative="1" as="geometry">
            <mxPoint as="offset" />
          </mxGeometry>
        </mxCell>
        <mxCell id="EJMl3LAZy8YmI0-ctrb4-37" style="edgeStyle=orthogonalEdgeStyle;rounded=0;orthogonalLoop=1;jettySize=auto;html=1;entryX=0.5;entryY=0;entryDx=0;entryDy=0;" edge="1" parent="WIyWlLk6GJQsqaUBKTNV-1" source="EJMl3LAZy8YmI0-ctrb4-34" target="WIyWlLk6GJQsqaUBKTNV-11">
          <mxGeometry relative="1" as="geometry">
            <Array as="points">
              <mxPoint x="80" y="130" />
              <mxPoint x="80" y="1210" />
              <mxPoint x="220" y="1210" />
            </Array>
          </mxGeometry>
        </mxCell>
        <mxCell id="EJMl3LAZy8YmI0-ctrb4-34" value="Модельное время &amp;lt; 8760" style="rhombus;whiteSpace=wrap;html=1;" vertex="1" parent="WIyWlLk6GJQsqaUBKTNV-1">
          <mxGeometry x="135" y="90" width="170" height="80" as="geometry" />
        </mxCell>
      </root>
    </mxGraphModel>
  </diagram>
</mxfile>
